PathFileType	4	(X/Y/Z)	C:\Users\Basilio\Documents\Thesis Gigler\squatting_fais\c3dfiles\047\SLS_pre_front5\markers_experimental.trc
DataRate	CameraRate	NumFrames	NumMarkers	Units	OrigDataRate	OrigDataStartFrame	OrigNumFrames
200.000000	200.000000	4	60	mm	200.000000	887	1183
Frame#	Time	FHD			LBHD			RBHD			C7			T10			CLAV			LSHO			LUUPA			LMUPA			LDUPA			LLEP			LMEP			LRAD			LUL			LRFIN			RSHO			RUPA1			RMUPA			RDUPA			RLEP			RMEP			RRAD			RUL			RUFIN			LASI			RASI			USACR			LSACR			RSACR			LTHI1			LTHI2			LTHI3			LTHI4			LLFC			LMFC			LTIB1			LTIB2			LTIB3			LTIB4			LLMAL			LMMAL			LMT1			LMT2			LMT5			RTHI			RTHI2			RTHI3			RTHI4			RLFC			RMFC			RTIB1			RTIB2			RTIB3			RTIB4			RLMAL			RMMAL			RHEE			RMT1			RMT2			RMT5			
		X1	Y1	Z1	X2	Y2	Z2	X3	Y3	Z3	X4	Y4	Z4	X5	Y5	Z5	X6	Y6	Z6	X7	Y7	Z7	X8	Y8	Z8	X9	Y9	Z9	X10	Y10	Z10	X11	Y11	Z11	X12	Y12	Z12	X13	Y13	Z13	X14	Y14	Z14	X15	Y15	Z15	X16	Y16	Z16	X17	Y17	Z17	X18	Y18	Z18	X19	Y19	Z19	X20	Y20	Z20	X21	Y21	Z21	X22	Y22	Z22	X23	Y23	Z23	X24	Y24	Z24	X25	Y25	Z25	X26	Y26	Z26	X27	Y27	Z27	X28	Y28	Z28	X29	Y29	Z29	X30	Y30	Z30	X31	Y31	Z31	X32	Y32	Z32	X33	Y33	Z33	X34	Y34	Z34	X35	Y35	Z35	X36	Y36	Z36	X37	Y37	Z37	X38	Y38	Z38	X39	Y39	Z39	X40	Y40	Z40	X41	Y41	Z41	X42	Y42	Z42	X43	Y43	Z43	X44	Y44	Z44	X45	Y45	Z45	X46	Y46	Z46	X47	Y47	Z47	X48	Y48	Z48	X49	Y49	Z49	X50	Y50	Z50	X51	Y51	Z51	X52	Y52	Z52	X53	Y53	Z53	X54	Y54	Z54	X55	Y55	Z55	X56	Y56	Z56	X57	Y57	Z57	X58	Y58	Z58	X59	Y59	Z59	X60	Y60	Z60	

888	4.435	-226.0892639160157	1752.615966796875	-1071.173706054688	-396.0773925781251	1694.22509765625	-1106.1240234375	-381.5149536132813	1699.947631835938	-958.583190917969	-402.0486450195314	1513.0283203125	-1035.40234375	-400.6344604492189	1208.768676757813	-1011.4853515625	-245.9829711914063	1476.802368164063	-1055.304321289063	-329.7143249511719	1498.744384765625	-1200.187133789063	-240.0671539306641	1439.958740234375	-1337.533935546875	-219.6104888916016	1485.251708984375	-1334.625244140625	-181.1006011962891	1456.654541015625	-1369.78857421875	-127.361686706543	1485.367065429688	-1395.274780273438	-84.91970062255861	1431.063842773438	-1353.598388671875	140.6265258789063	1529.652221679688	-1424.769775390625	109.7948379516602	1543.315673828125	-1496.355346679688	203.4959869384766	1571.0654296875	-1458.387817382813	-295.5360717773438	1518.33935546875	-903.6416015625002	-166.7474060058594	1463.435791015625	-785.673278808594	-140.8854064941407	1500.881713867188	-805.2170410156252	-97.90289306640628	1467.0322265625	-779.858581542969	-31.32041358947755	1485.8134765625	-783.0957641601565	-14.88878345489502	1419.9208984375	-828.8355712890627	235.5604248046876	1500.91455078125	-828.5493774414065	222.4393615722657	1517.337768554688	-756.3540649414064	310.7430419921876	1529.8310546875	-812.234558105469	-235.146957397461	982.4700927734377	-1101.336303710938	-229.3786163330079	1008.978393554688	-874.111267089844	-415.5349426269532	1076.344848632813	-999.1774902343752	-417.8619689941407	1042.975463867188	-1025.018432617188	-420.4760742187501	1048.446533203125	-966.5209960937502	-321.4238586425782	824.597839355469	-1164.214111328125	-285.1303100585938	748.2285766601564	-1162.277709960938	-236.8389434814454	752.9064331054689	-1150.4951171875	-313.2235717773438	694.0089721679689	-1153.626220703125	-332.8738098144532	523.3577880859376	-1111.127197265625	-303.2433776855469	517.8641357421876	-990.073913574219	-295.1413269042969	342.7127380371094	-1009.212280273438	-298.9519042968751	293.7176513671876	-1084.163818359375	-283.3423767089844	293.6052551269532	-1038.1923828125	-292.5105590820313	217.1128387451172	-1006.628845214844	-335.7186584472657	116.8074798583985	-1049.275146484375	-316.0513610839844	133.5831146240235	-962.7524414062502	-191.8608551025391	62.33270263671876	-977.5906982421877	-193.3973236083985	57.60427093505861	-1021.053955078125	-238.2957611083985	44.75791931152344	-1067.419189453125	-240.1730194091797	850.1641845703127	-772.9858398437502	-176.2878723144532	832.6967773437502	-779.0142822265627	-153.0339508056641	853.8067626953127	-787.6582031250002	-144.4700469970703	755.3917236328126	-777.9082031250002	-45.55245590209962	647.6347656250001	-796.0717773437502	-30.20573425292969	644.7937011718751	-918.5565185546877	50.0302200317383	556.0192871093751	-816.486267089844	42.38969421386719	458.0934448242189	-766.5158691406251	77.91000366210939	477.7215576171876	-790.3662109375002	105.8807601928711	438.3983764648439	-823.6028442382815	128.9788818359375	282.0173645019532	-781.2056884765627	136.0664672851563	295.6392211914063	-871.7373046875002	82.85733032226564	225.7447052001954	-823.3736572265627	283.7159729003907	272.5422363281251	-870.3496704101565	289.9573059082032	284.7149963378907	-827.1086425781252	259.9973754882813	252.7842254638672	-763.0885009765626	
889	4.44	-226.5832977294922	1752.68212890625	-1070.589721679688	-396.6442260742189	1694.294799804688	-1105.694213867188	-382.1734008789063	1699.933471679688	-957.889831542969	-402.4712829589845	1513.014038085938	-1035.056518554688	-400.5151367187501	1208.576416015625	-1011.415161132813	-246.4258880615235	1476.804809570313	-1054.786010742188	-329.3660583496094	1498.9248046875	-1200.338256835938	-240.4065551757813	1440.074584960938	-1337.254760742188	-219.9177551269532	1485.29150390625	-1334.371215820313	-181.3497772216797	1456.776733398438	-1369.533447265625	-127.3617782592774	1485.586791992188	-1394.62158203125	-85.39389801025392	1431.303344726563	-1353.284423828125	140.7710113525391	1529.974975585938	-1424.298217773438	109.5921859741211	1543.646240234375	-1495.791259765625	203.2304687500001	1571.704223632813	-1457.737670898438	-295.7402954101563	1518.294677734375	-903.402526855469	-167.0329895019532	1463.474609375	-785.2359008789065	-141.524887084961	1500.806396484375	-804.5484619140627	-98.52067565917972	1467.103881835938	-779.2706298828127	-31.80893325805665	1485.953979492188	-782.6270751953127	-15.27306747436524	1420.083129882813	-828.4082031250002	235.0889129638672	1501.09814453125	-827.7116699218752	221.8673095703126	1517.609619140625	-755.7482910156251	310.2903747558594	1530.057006835938	-811.3897705078127	-234.5774383544922	982.629821777344	-1101.501342773438	-229.0214233398438	1009.066772460938	-874.8775634765627	-415.1866149902345	1076.173583984375	-999.347351074219	-417.7386474609376	1042.77978515625	-1025.146728515625	-420.0003356933595	1048.158813476563	-966.7828369140627	-320.5367736816407	824.6126708984377	-1164.305297851563	-284.3110046386719	748.1946411132814	-1162.5087890625	-235.9395751953126	753.0315551757814	-1150.645874023438	-312.5282592773438	694.1253051757814	-1153.697387695313	-332.1437072753907	523.4519653320314	-1111.337890625	-302.7806091308594	517.9069824218751	-990.1795654296877	-294.8659973144532	342.5956420898438	-1009.205322265625	-298.5445251464844	293.7918395996094	-1084.238891601563	-282.9484558105469	293.6692810058594	-1038.453857421875	-292.3845214843751	217.1501617431641	-1006.696411132813	-335.6489562988282	116.8055725097657	-1049.391235351563	-316.0471496582032	133.5428009033203	-962.8333129882815	-191.770736694336	62.33488082885744	-977.7546997070315	-193.3982849121094	57.6064796447754	-1021.053955078125	-238.3127746582032	44.64598083496094	-1067.444946289063	-239.8208618164063	850.0234985351565	-773.0316162109377	-175.8997650146485	832.5794067382815	-779.3523559570315	-152.7165069580078	853.6556396484377	-787.7493286132815	-144.0906982421875	755.2504272460939	-778.124694824219	-44.88048553466798	647.5891113281251	-796.1810302734377	-30.79240417480469	644.8513793945314	-918.747009277344	50.66610336303712	556.1072387695314	-816.8877563476565	43.1289176940918	457.8700256347657	-767.0053100585939	78.34925079345705	477.6451416015626	-790.4582519531252	106.587631225586	438.3820800781251	-823.520935058594	129.5160064697266	281.8166198730469	-781.4458618164065	137.3515014648438	296.3247375488282	-872.1155395507815	83.64599609375001	225.6894683837891	-823.9149169921877	284.4681701660157	272.6261596679688	-870.299255371094	290.5603942871094	284.6406250000001	-826.956970214844	260.6153564453126	252.1251983642579	-763.6069335937501	
890	4.445	-226.8217163085938	1752.71826171875	-1070.398315429688	-397.248016357422	1694.688720703125	-1105.245239257813	-382.5886535644532	1700.065307617188	-957.3981933593752	-402.7881164550782	1512.95751953125	-1034.67724609375	-400.3876342773439	1208.39501953125	-1011.354370117188	-246.4984436035157	1476.940673828125	-1054.753662109375	-329.6885986328126	1498.945556640625	-1200.05517578125	-240.7595214843751	1440.2470703125	-1336.945190429688	-220.1826934814454	1485.361083984375	-1334.084228515625	-181.6248016357422	1456.85595703125	-1369.263671875	-127.5405349731446	1485.58154296875	-1394.366577148438	-85.51727294921876	1431.442260742188	-1352.739868164063	140.3526916503907	1530.387451171875	-1423.621826171875	109.4214477539063	1544.064575195313	-1495.321044921875	203.0802612304688	1572.255493164063	-1457.095581054688	-296.1892700195313	1518.210083007813	-902.8984985351565	-167.5434722900391	1463.473510742188	-784.9217529296877	-141.7055053710938	1500.895629882813	-804.1760864257815	-98.7465515136719	1467.222534179688	-779.1998291015627	-32.0953483581543	1486.027587890625	-782.2290649414065	-15.52871227264405	1420.202392578125	-828.0382080078127	234.5975036621094	1501.276123046875	-826.8813476562502	221.5326080322266	1517.54736328125	-755.0441894531251	310.1738281250001	1530.206420898438	-810.9145507812502	-234.1749877929688	982.7109375000002	-1101.39208984375	-228.7698822021485	1009.09423828125	-874.7744750976565	-414.7194824218751	1075.993530273438	-999.5586547851565	-417.1163330078126	1042.639526367188	-1025.378051757813	-419.6451110839845	1047.789428710938	-967.0622558593752	-319.5132751464844	824.6346435546877	-1164.5078125	-283.6532287597657	748.2489624023439	-1162.628173828125	-235.2814483642579	753.0801391601564	-1150.643188476563	-311.7132568359376	694.1549682617189	-1153.742553710938	-331.3935852050782	523.2259521484376	-1111.577392578125	-301.8551635742188	517.9336547851564	-990.564636230469	-294.6130065917969	342.6195983886719	-1009.060791015625	-298.0209350585938	293.8570251464844	-1084.43115234375	-282.8434448242188	293.7605590820313	-1038.4462890625	-292.2460937500001	217.1538696289063	-1006.809936523438	-335.6697082519532	116.8030624389649	-1049.4306640625	-316.0080871582032	133.6154174804688	-962.9272460937502	-191.7452087402344	62.33546829223634	-977.8381347656252	-193.3977966308594	57.60535049438478	-1021.053955078125	-238.2989959716797	44.61170196533204	-1067.519775390625	-239.4904785156251	849.8875732421877	-773.6121826171877	-175.3257293701172	832.3253173828127	-779.5471191406252	-152.4952545166016	853.508972167969	-787.7288208007815	-143.805892944336	755.0808715820314	-778.2785644531252	-44.16987228393555	647.5841064453126	-796.380554199219	-30.11087799072266	644.8793945312501	-918.7409667968752	51.17102813720705	555.9544677734376	-816.4465942382815	43.65805435180665	457.7980041503907	-767.3258666992189	79.14904022216798	477.6109313964845	-790.7283935546877	107.1938018798828	438.4429931640626	-823.752380371094	130.1910552978516	282.0160827636719	-781.7385864257815	137.5251770019532	295.6622619628907	-872.3743286132815	84.5355682373047	225.0996551513672	-824.528991699219	285.1364135742188	272.9214782714844	-870.320251464844	291.3450012207032	284.7719116210938	-827.0421142578127	261.3351745605469	252.1389465332032	-763.5995483398439	
891	4.45	-227.8905792236329	1752.38671875	-1069.073120117188	-397.7086181640626	1694.688110351563	-1104.877075195313	-382.7312622070313	1700.153198242188	-957.3732910156252	-403.0425720214845	1513.050048828125	-1034.359985351563	-400.3063354492189	1208.231689453125	-1011.324462890625	-246.9016571044922	1477.111938476563	-1054.371826171875	-329.9838867187501	1498.967895507813	-1199.759765625	-241.0384674072266	1440.292846679688	-1336.678466796875	-220.3885040283204	1485.448486328125	-1333.852172851563	-181.7950897216797	1456.959838867188	-1368.9658203125	-127.8217163085938	1485.734130859375	-1394.054565429688	-85.76624298095705	1431.4248046875	-1352.486328125	139.7056732177735	1530.755249023438	-1423.014526367188	109.1596450805664	1544.381591796875	-1494.906982421875	202.6436309814454	1572.686401367188	-1456.413208007813	-296.3391113281251	1518.245727539063	-902.8296508789065	-168.0417785644532	1463.492553710938	-784.3580322265627	-141.9974365234375	1501.160888671875	-803.8877563476565	-99.0168151855469	1467.349243164063	-778.599548339844	-32.83088684082032	1485.813110351563	-781.1270141601565	-15.71139907836914	1420.236450195313	-827.748718261719	234.3505554199219	1501.4931640625	-826.361022949219	221.1411590576172	1517.658203125	-754.2828369140626	310.0674438476563	1530.405883789063	-810.2759399414065	-233.4953308105469	982.8719482421877	-1101.505859375	-228.4175109863282	1008.991577148438	-874.2287597656252	-413.8661193847657	1076.188598632813	-999.661560058594	-416.5731506347657	1042.509887695313	-1025.529296875	-419.1930236816407	1047.581298828125	-967.2476196289065	-318.8715820312501	824.6591796875002	-1164.695678710938	-282.9920959472657	748.3279418945314	-1162.6865234375	-234.2698516845704	753.2297973632814	-1150.992309570313	-310.8715209960938	694.2413940429689	-1153.928100585938	-330.5321655273438	523.3030395507814	-1111.871215820313	-301.5492248535157	517.9130249023439	-990.487976074219	-294.1941528320313	342.7855529785157	-1009.304016113281	-297.7857971191407	293.6679992675782	-1084.817260742188	-282.4672851562501	293.6564025878907	-1038.57080078125	-291.9389648437501	217.2099914550782	-1006.935668945313	-335.6975708007813	116.7647171020508	-1049.531494140625	-316.0215454101563	133.6053619384766	-963.0214843750002	-191.5888824462891	62.36488723754884	-977.885437011719	-190.8897399902344	58.99611282348634	-1022.075866699219	-238.3291320800782	44.57658004760743	-1067.51318359375	-239.1008453369141	849.6758422851565	-773.532897949219	-174.6880035400391	832.2505493164065	-779.120788574219	-152.0346832275391	853.4940185546877	-787.919128417969	-143.2492370605469	755.0061035156251	-778.766296386719	-43.62810516357423	647.5140991210939	-796.459167480469	-29.18864440917969	644.9701538085939	-918.9680175781252	51.84217834472658	555.9383544921876	-816.6258544921877	44.2696762084961	457.7732238769532	-767.6010131835939	79.56034088134767	477.548797607422	-790.663269042969	107.732536315918	438.4300231933595	-823.6130371093752	130.8894348144532	281.8026428222657	-782.2249755859377	138.4341583251953	295.7118225097657	-872.6517333984377	84.94651794433595	225.5282135009766	-824.6790161132815	286.3038024902344	272.9856262207032	-870.4980468750002	292.1008605957032	284.7507019042969	-827.1813964843752	261.8903808593751	252.219467163086	-763.7295532226564	
